<mxfile host="app.diagrams.net" agent="Mozilla/5.0 (Macintosh; Intel Mac OS X 10_15_7) AppleWebKit/537.36 (KHTML, like Gecko) Chrome/130.0.0.0 Safari/537.36" version="26.2.14">
  <diagram name="Page-1" id="DAs-93Ltef7HiLzhUlXD">
    <mxGraphModel dx="1543" dy="995" grid="1" gridSize="10" guides="1" tooltips="1" connect="1" arrows="1" fold="1" page="1" pageScale="1" pageWidth="850" pageHeight="1100" math="0" shadow="0">
      <root>
        <mxCell id="0" />
        <mxCell id="1" parent="0" />
        <mxCell id="LxEVA1ZuhoiBNaAYCaa0-1" value="" style="rounded=0;whiteSpace=wrap;html=1;" vertex="1" parent="1">
          <mxGeometry x="80" y="100" width="240" height="180" as="geometry" />
        </mxCell>
        <mxCell id="LxEVA1ZuhoiBNaAYCaa0-3" value="Azure Repos" style="text;html=1;align=center;verticalAlign=middle;resizable=0;points=[];autosize=1;strokeColor=none;fillColor=none;" vertex="1" parent="1">
          <mxGeometry x="55" y="48" width="90" height="30" as="geometry" />
        </mxCell>
        <mxCell id="LxEVA1ZuhoiBNaAYCaa0-4" value="" style="rounded=0;whiteSpace=wrap;html=1;" vertex="1" parent="1">
          <mxGeometry x="520" y="110" width="250" height="170" as="geometry" />
        </mxCell>
        <mxCell id="LxEVA1ZuhoiBNaAYCaa0-5" value="Sonar" style="text;html=1;align=center;verticalAlign=middle;resizable=0;points=[];autosize=1;strokeColor=none;fillColor=none;" vertex="1" parent="1">
          <mxGeometry x="530" y="48" width="60" height="30" as="geometry" />
        </mxCell>
        <mxCell id="LxEVA1ZuhoiBNaAYCaa0-6" value="ESTADO ACTUAL" style="text;html=1;align=center;verticalAlign=middle;resizable=0;points=[];autosize=1;strokeColor=none;fillColor=none;" vertex="1" parent="1">
          <mxGeometry x="360" y="10" width="120" height="30" as="geometry" />
        </mxCell>
        <mxCell id="LxEVA1ZuhoiBNaAYCaa0-7" value="&lt;div&gt;master&lt;/div&gt;develop&lt;div&gt;feature/init&lt;/div&gt;&lt;div&gt;feature/token&lt;/div&gt;" style="rounded=0;whiteSpace=wrap;html=1;align=left;" vertex="1" parent="1">
          <mxGeometry x="100" y="160" width="200" height="80" as="geometry" />
        </mxCell>
        <mxCell id="LxEVA1ZuhoiBNaAYCaa0-8" value="&lt;b&gt;admin-reportes&lt;/b&gt;" style="text;html=1;align=center;verticalAlign=middle;resizable=0;points=[];autosize=1;strokeColor=none;fillColor=none;" vertex="1" parent="1">
          <mxGeometry x="90" y="130" width="110" height="30" as="geometry" />
        </mxCell>
        <mxCell id="LxEVA1ZuhoiBNaAYCaa0-9" value="&lt;div&gt;master&lt;/div&gt;develop&lt;div&gt;feature/init&lt;/div&gt;&lt;div&gt;feature/token&lt;/div&gt;" style="rounded=0;whiteSpace=wrap;html=1;align=left;" vertex="1" parent="1">
          <mxGeometry x="545" y="160" width="200" height="80" as="geometry" />
        </mxCell>
        <mxCell id="LxEVA1ZuhoiBNaAYCaa0-10" value="&lt;b&gt;admin-reportes&lt;/b&gt;" style="text;html=1;align=center;verticalAlign=middle;resizable=0;points=[];autosize=1;strokeColor=none;fillColor=none;" vertex="1" parent="1">
          <mxGeometry x="535" y="130" width="110" height="30" as="geometry" />
        </mxCell>
        <mxCell id="LxEVA1ZuhoiBNaAYCaa0-11" value="" style="rounded=0;whiteSpace=wrap;html=1;" vertex="1" parent="1">
          <mxGeometry x="80" y="430" width="240" height="180" as="geometry" />
        </mxCell>
        <mxCell id="LxEVA1ZuhoiBNaAYCaa0-12" value="Azure Repos" style="text;html=1;align=center;verticalAlign=middle;resizable=0;points=[];autosize=1;strokeColor=none;fillColor=none;" vertex="1" parent="1">
          <mxGeometry x="55" y="378" width="90" height="30" as="geometry" />
        </mxCell>
        <mxCell id="LxEVA1ZuhoiBNaAYCaa0-13" value="" style="rounded=0;whiteSpace=wrap;html=1;" vertex="1" parent="1">
          <mxGeometry x="520" y="440" width="250" height="460" as="geometry" />
        </mxCell>
        <mxCell id="LxEVA1ZuhoiBNaAYCaa0-14" value="Sonar" style="text;html=1;align=center;verticalAlign=middle;resizable=0;points=[];autosize=1;strokeColor=none;fillColor=none;" vertex="1" parent="1">
          <mxGeometry x="530" y="378" width="60" height="30" as="geometry" />
        </mxCell>
        <mxCell id="LxEVA1ZuhoiBNaAYCaa0-15" value="ESTADO FREE" style="text;html=1;align=center;verticalAlign=middle;resizable=0;points=[];autosize=1;strokeColor=none;fillColor=none;" vertex="1" parent="1">
          <mxGeometry x="365" y="340" width="110" height="30" as="geometry" />
        </mxCell>
        <mxCell id="LxEVA1ZuhoiBNaAYCaa0-16" value="&lt;div&gt;master&lt;/div&gt;develop&lt;div&gt;feature/init&lt;/div&gt;&lt;div&gt;feature/token&lt;/div&gt;" style="rounded=0;whiteSpace=wrap;html=1;align=left;" vertex="1" parent="1">
          <mxGeometry x="100" y="490" width="200" height="80" as="geometry" />
        </mxCell>
        <mxCell id="LxEVA1ZuhoiBNaAYCaa0-17" value="&lt;b&gt;admin-reportes&lt;/b&gt;" style="text;html=1;align=center;verticalAlign=middle;resizable=0;points=[];autosize=1;strokeColor=none;fillColor=none;" vertex="1" parent="1">
          <mxGeometry x="90" y="460" width="110" height="30" as="geometry" />
        </mxCell>
        <mxCell id="LxEVA1ZuhoiBNaAYCaa0-18" value="version 1 (base)&lt;div&gt;version 2 (diferencial)&lt;/div&gt;&lt;div&gt;version 3&amp;nbsp;&lt;span style=&quot;background-color: transparent; color: light-dark(rgb(0, 0, 0), rgb(255, 255, 255));&quot;&gt;(diferencial)&lt;/span&gt;&lt;/div&gt;" style="rounded=0;whiteSpace=wrap;html=1;align=left;" vertex="1" parent="1">
          <mxGeometry x="530" y="490" width="200" height="60" as="geometry" />
        </mxCell>
        <mxCell id="LxEVA1ZuhoiBNaAYCaa0-19" value="&lt;b&gt;admin-reportes_master&lt;/b&gt;" style="text;html=1;align=center;verticalAlign=middle;resizable=0;points=[];autosize=1;strokeColor=none;fillColor=none;" vertex="1" parent="1">
          <mxGeometry x="520" y="460" width="160" height="30" as="geometry" />
        </mxCell>
        <mxCell id="LxEVA1ZuhoiBNaAYCaa0-20" value="version 1 (base)&lt;div&gt;version 2 (diferencial)&lt;/div&gt;&lt;div&gt;version 3&amp;nbsp;&lt;span style=&quot;background-color: transparent; color: light-dark(rgb(0, 0, 0), rgb(255, 255, 255));&quot;&gt;(diferencial)&lt;/span&gt;&lt;/div&gt;" style="rounded=0;whiteSpace=wrap;html=1;align=left;" vertex="1" parent="1">
          <mxGeometry x="530" y="600" width="200" height="60" as="geometry" />
        </mxCell>
        <mxCell id="LxEVA1ZuhoiBNaAYCaa0-21" value="&lt;b&gt;admin-reportes_develop&lt;/b&gt;" style="text;html=1;align=center;verticalAlign=middle;resizable=0;points=[];autosize=1;strokeColor=none;fillColor=none;" vertex="1" parent="1">
          <mxGeometry x="520" y="570" width="160" height="30" as="geometry" />
        </mxCell>
        <mxCell id="LxEVA1ZuhoiBNaAYCaa0-23" value="version 1 (base)&lt;div&gt;version 2 (diferencial)&lt;/div&gt;&lt;div&gt;version 3&amp;nbsp;&lt;span style=&quot;background-color: transparent; color: light-dark(rgb(0, 0, 0), rgb(255, 255, 255));&quot;&gt;(diferencial)&lt;/span&gt;&lt;/div&gt;" style="rounded=0;whiteSpace=wrap;html=1;align=left;" vertex="1" parent="1">
          <mxGeometry x="530" y="700" width="200" height="60" as="geometry" />
        </mxCell>
        <mxCell id="LxEVA1ZuhoiBNaAYCaa0-24" value="&lt;b&gt;admin-reportes_feature/init&lt;/b&gt;" style="text;html=1;align=center;verticalAlign=middle;resizable=0;points=[];autosize=1;strokeColor=none;fillColor=none;" vertex="1" parent="1">
          <mxGeometry x="520" y="670" width="180" height="30" as="geometry" />
        </mxCell>
        <mxCell id="LxEVA1ZuhoiBNaAYCaa0-25" value="version 1 (base)&lt;div&gt;version 2 (diferencial)&lt;/div&gt;&lt;div&gt;version 3&amp;nbsp;&lt;span style=&quot;background-color: transparent; color: light-dark(rgb(0, 0, 0), rgb(255, 255, 255));&quot;&gt;(diferencial)&lt;/span&gt;&lt;/div&gt;" style="rounded=0;whiteSpace=wrap;html=1;align=left;" vertex="1" parent="1">
          <mxGeometry x="530" y="810" width="200" height="60" as="geometry" />
        </mxCell>
        <mxCell id="LxEVA1ZuhoiBNaAYCaa0-26" value="&lt;b&gt;admin-reportes_feature/token&lt;/b&gt;" style="text;html=1;align=center;verticalAlign=middle;resizable=0;points=[];autosize=1;strokeColor=none;fillColor=none;" vertex="1" parent="1">
          <mxGeometry x="520" y="780" width="190" height="30" as="geometry" />
        </mxCell>
      </root>
    </mxGraphModel>
  </diagram>
</mxfile>
